<svg 
          width="23" 
          height="23" fill="none" 
          xmlns="http://www.w3.org/2000/svg">
          <path d="M 11.5 0 C 5.1750001566750665 0 0 5.1750001566750665 0 11.5 C 0 17.82499984332493 5.1750001566750665 23 11.5 23 C 17.82499984332493 23 23 17.82499984332493 23 11.5 C 23 5.1750001566750665 17.82499984332493 0 11.5 0 Z M 10.596428258078438 4.928571428571429 L 12.40357174192156 4.928571428571429 L 12.40357174192156 13.964285714285714 L 10.596428258078438 13.964285714285714 L 10.596428258078438 4.928571428571429 L 10.596428258078438 4.928571428571429 Z M 11.5 18.892857142857142 C 10.842857133064951 18.892857142857142 10.267857142857142 18.317857152649335 10.267857142857142 17.660714285714285 C 10.267857142857142 17.003571418779234 10.842857133064951 16.428571428571427 11.5 16.428571428571427 C 12.157142866935049 16.428571428571427 12.732142857142856 17.003571418779234 12.732142857142856 17.660714285714285 C 12.732142857142856 18.317857152649335 12.157142866935049 18.892857142857142 11.5 18.892857142857142 Z" fill="rgb(208.24999898672104,26.031247973442078,26.031247973442078)"/>
        </svg>